<svg xmlns="http://www.w3.org/2000/svg" xmlns:xlink="http://www.w3.org/1999/xlink" preserveAspectRatio="xMidYMid" width="100" height="100" viewBox="0 0 200 200">
  <defs>
    <style>
      .cls-1 {
        fill: #2b2b2b;
        stroke: #010002;
      }

      .cls-1, .cls-2 {
        fill-rule: evenodd;
      }

      .cls-2 {
        fill: #ebc12d;
      }
    </style>
  </defs>
  <path d="M100.000,0.010 L199.990,100.000 L100.000,199.990 L0.010,100.000 L100.000,0.010 Z" class="cls-1"/>
  <path d="M133.664,77.272 L133.664,95.457 L149.077,95.457 L149.077,105.480 L133.664,105.480 L133.664,136.580 L120.542,136.580 L120.542,77.272 L100.338,77.272 L100.338,95.457 L115.647,95.457 L115.647,105.480 L100.338,105.480 L100.338,136.580 L87.112,136.580 L87.112,77.272 L66.909,77.272 L66.909,95.457 L82.322,95.457 L82.322,105.480 L66.909,105.480 L66.909,136.580 L53.683,136.580 L53.683,67.146 L155.013,67.146 L155.013,77.272 L133.664,77.272 Z" class="cls-2"/>
  <path d="M158.455,27.019 C160.130,26.993 161.268,27.198 161.949,28.042 C162.914,29.237 163.378,33.664 163.414,37.455 C163.427,38.817 163.391,40.032 163.283,41.051 C163.206,41.034 163.163,41.976 163.076,42.366 C162.963,42.298 162.850,42.025 162.738,41.957 C158.153,37.311 154.214,40.235 152.258,42.878 C151.582,44.072 150.905,45.266 150.229,46.459 C150.755,44.584 151.281,42.707 151.807,40.832 C153.468,35.327 153.636,29.745 158.455,27.019 ZM169.950,28.963 C169.912,28.963 170.522,28.672 171.189,28.656 C171.646,28.645 172.064,28.726 172.429,28.963 C172.793,29.200 173.127,30.295 173.235,31.024 C173.551,33.163 172.645,35.564 171.978,37.353 C170.243,42.005 167.165,46.968 162.287,49.631 C161.065,50.298 159.445,51.128 158.005,51.473 C158.005,51.405 158.249,51.294 158.906,50.859 C161.312,49.430 163.746,48.128 163.977,44.924 C163.912,43.701 163.602,43.560 163.414,42.878 C163.602,41.480 163.789,40.081 163.977,38.683 C163.977,37.148 164.090,35.716 164.090,34.181 C164.512,33.705 165.070,33.029 165.668,32.442 C167.108,31.027 168.167,29.925 169.950,28.963 ZM145.834,67.435 C145.722,65.457 145.609,63.478 145.496,61.500 C145.421,61.534 145.346,61.568 145.271,61.602 C144.889,62.881 144.285,64.139 143.718,65.358 C143.634,65.539 143.591,65.775 143.468,65.900 C143.345,66.024 140.200,66.923 140.200,66.923 C140.200,66.923 138.639,67.342 137.721,67.435 C137.721,67.400 137.721,67.366 137.721,67.332 C137.871,67.162 138.021,66.991 138.172,66.821 C139.375,66.627 141.956,65.887 142.792,65.388 C143.399,64.544 144.892,60.968 144.708,59.556 C144.595,58.635 144.482,57.714 144.369,56.793 C144.792,55.208 147.063,54.834 147.750,53.417 C149.758,49.275 151.551,41.297 156.878,40.115 C160.698,39.268 164.503,43.656 162.850,46.971 C161.308,50.064 155.726,52.169 151.807,53.417 C151.882,53.519 152.183,53.622 152.258,53.724 C153.930,53.981 155.474,56.674 154.399,58.635 C153.413,60.431 151.065,60.773 148.539,61.193 C148.539,61.227 148.539,61.261 148.539,61.295 C150.642,62.660 152.746,64.024 154.849,65.388 C154.888,67.637 154.309,69.487 153.835,71.118 C153.760,71.118 153.685,71.118 153.610,71.118 C153.620,69.075 154.258,67.327 153.835,65.695 C152.220,64.706 150.605,63.717 148.990,62.728 C150.004,64.297 151.018,65.866 152.032,67.435 C151.694,67.435 151.356,67.435 151.018,67.435 C150.981,67.435 150.943,67.435 150.905,67.435 C149.553,65.457 148.201,63.478 146.849,61.500 C146.773,61.500 146.698,61.500 146.623,61.500 C146.736,63.478 146.849,65.457 146.961,67.435 C146.586,67.435 146.210,67.435 145.834,67.435 ZM153.948,54.133 C156.577,54.372 159.207,54.611 161.836,54.849 C162.193,55.997 162.818,56.913 162.850,58.635 C162.775,58.669 162.700,58.703 162.625,58.737 C161.536,58.976 160.446,59.215 159.357,59.454 C158.029,59.294 156.727,58.491 154.962,58.430 C155.383,56.304 154.667,55.509 153.948,54.133 ZM168.485,57.919 C166.757,58.089 165.029,58.260 163.301,58.430 C163.309,56.671 162.697,56.182 162.400,54.849 C162.738,54.849 163.076,54.849 163.414,54.849 C164.879,54.952 166.344,55.054 167.809,55.156 C168.059,56.126 168.478,56.558 168.485,57.919 ZM168.936,57.919 C168.965,56.545 168.560,56.247 168.259,55.259 C169.236,55.361 170.213,55.361 171.189,55.463 C171.492,56.444 171.855,56.836 171.865,58.226 C170.889,58.124 169.912,58.021 168.936,57.919 ZM171.753,55.463 C172.973,55.621 174.224,56.014 175.584,56.179 C179.586,56.667 183.971,57.020 186.853,58.124 C186.853,58.260 186.853,58.396 186.853,58.533 C186.740,58.635 186.290,58.737 186.177,58.840 C181.678,59.252 176.521,59.084 172.316,58.328 C172.128,57.373 171.941,56.418 171.753,55.463 ZM140.425,55.873 C141.184,55.840 141.558,55.826 142.007,55.988 C144.630,56.932 144.576,60.596 141.778,61.398 C138.875,62.230 136.688,58.402 139.298,56.384 C139.603,56.149 139.831,56.054 140.425,55.873 ZM137.946,57.100 C137.795,57.852 137.463,58.536 137.834,59.556 C138.988,62.731 142.131,62.266 143.806,60.477 C143.806,60.579 143.668,60.990 143.581,61.193 C141.642,64.618 135.185,61.688 137.946,57.100 Z" class="cls-2"/>
</svg>
